<svg id="svg" version="1.1" xmlns="http://www.w3.org/2000/svg" xmlns:xlink="http://www.w3.org/1999/xlink" width="400" height="400" viewBox="0, 0, 400,400"><g id="svgg"><path id="path0" d="M0.000 200.000 L 0.000 400.000 200.000 400.000 L 400.000 400.000 400.000 200.000 L 400.000 0.000 200.000 0.000 L 0.000 0.000 0.000 200.000 M158.121 142.149 C 163.833 145.079,164.035 152.591,158.496 156.110 L 157.031 157.041 157.031 160.319 L 157.031 163.598 158.779 164.622 C 165.653 168.650,162.500 179.297,154.432 179.297 C 145.971 179.297,142.975 169.343,150.031 164.674 L 151.563 163.661 151.563 160.356 C 151.563 155.427,150.522 154.950,146.533 158.050 L 143.752 160.211 144.728 161.490 C 146.304 163.556,146.152 163.801,138.578 171.383 C 130.621 179.349,130.914 179.197,127.489 177.135 C 108.225 165.534,83.804 183.151,88.483 205.273 C 93.165 227.415,122.642 233.481,136.202 215.094 C 139.082 211.189,139.358 211.328,128.733 211.328 C 119.713 211.328,119.566 211.315,118.967 210.460 C 118.030 209.122,118.064 190.817,119.006 189.777 C 120.032 188.643,163.044 188.670,163.651 189.805 C 165.966 194.131,164.558 210.397,161.139 218.810 C 152.378 240.370,125.700 253.976,103.459 248.226 C 99.950 247.319,99.797 247.374,91.369 252.576 C 77.241 261.295,78.127 261.761,78.120 245.605 L 78.114 234.180 75.945 231.641 C 50.917 202.342,67.817 157.264,106.195 150.955 C 115.688 149.395,127.077 150.914,135.381 154.847 C 139.624 156.857,139.085 156.932,143.319 153.750 L 146.208 151.579 146.275 149.325 C 146.455 143.234,152.773 139.407,158.121 142.149 M316.393 180.052 C 316.621 180.480,316.797 183.436,316.797 186.862 L 316.797 192.916 318.747 191.603 C 325.836 186.833,334.686 190.895,335.928 199.489 C 336.446 203.074,336.443 218.196,335.924 219.166 C 335.432 220.086,329.595 220.312,329.027 219.434 C 328.853 219.165,328.623 214.606,328.516 209.302 L 328.320 199.659 327.165 198.453 C 324.959 196.154,321.489 195.935,319.099 197.947 C 316.975 199.733,316.797 200.666,316.797 209.974 C 316.797 215.043,316.635 218.712,316.393 219.166 C 315.910 220.067,310.299 220.299,309.453 219.453 C 308.778 218.778,308.778 180.441,309.453 179.766 C 310.299 178.919,315.910 179.151,316.393 180.052 M203.223 182.686 C 203.384 182.781,203.516 184.518,203.516 186.546 L 203.516 190.234 206.822 190.234 C 210.742 190.234,210.918 190.404,210.744 194.015 C 210.587 197.277,210.600 197.266,206.813 197.266 L 203.516 197.266 203.516 203.932 C 203.516 212.549,203.666 212.875,207.637 212.885 C 210.640 212.892,210.938 213.216,210.938 216.475 C 210.938 220.019,210.276 220.514,205.942 220.212 C 197.746 219.640,196.094 217.040,196.094 204.710 L 196.094 197.266 193.828 197.266 C 190.943 197.266,190.625 196.917,190.625 193.750 C 190.625 190.583,190.943 190.234,193.828 190.234 L 196.094 190.234 196.100 186.816 C 196.103 184.937,196.238 183.190,196.400 182.935 C 196.871 182.195,202.067 182.006,203.223 182.686 M234.314 190.717 C 239.604 192.676,242.972 197.391,243.280 203.270 C 243.530 208.015,244.062 207.813,231.368 207.813 L 221.113 207.813 221.519 208.887 C 223.481 214.080,231.918 215.557,235.705 211.370 C 236.710 210.258,236.916 210.303,239.319 212.157 C 241.891 214.140,242.018 215.077,239.941 216.713 C 228.326 225.861,212.702 218.024,213.790 203.596 C 214.562 193.356,224.537 187.096,234.314 190.717 M265.608 190.725 C 271.671 192.994,272.703 195.763,272.565 209.398 L 272.461 219.727 269.141 219.727 L 265.820 219.727 265.402 218.431 C 265.054 217.355,264.904 217.230,264.517 217.697 C 261.464 221.375,252.108 221.276,248.552 217.528 C 242.202 210.837,247.663 202.046,258.398 201.679 C 264.568 201.468,265.234 201.327,265.234 200.230 C 265.234 195.794,256.552 194.927,252.764 198.985 C 251.119 200.747,248.695 198.976,247.777 195.343 C 246.801 191.480,259.108 188.293,265.608 190.725 M295.143 189.878 C 299.159 190.613,304.688 194.315,304.688 196.269 C 304.688 196.903,300.583 200.391,299.837 200.391 C 299.572 200.391,298.929 199.928,298.408 199.363 C 294.567 195.192,287.150 196.457,284.980 201.653 C 281.343 210.357,291.818 217.374,298.702 210.844 L 299.944 209.667 301.241 210.470 C 305.014 212.805,305.466 214.634,302.793 216.750 C 294.389 223.406,282.756 221.012,278.352 211.720 C 273.029 200.488,282.909 187.637,295.143 189.878 M226.125 196.531 C 224.240 197.061,222.408 198.691,221.678 200.488 L 221.083 201.953 228.315 201.953 C 236.427 201.953,236.507 201.919,234.668 199.213 C 233.037 196.813,229.299 195.640,226.125 196.531 M186.493 200.756 C 187.369 201.483,187.347 205.730,186.463 206.708 C 185.716 207.533,174.857 207.791,173.412 207.018 C 172.265 206.404,172.300 201.466,173.456 200.656 C 174.539 199.897,185.560 199.982,186.493 200.756 M257.934 207.440 C 255.882 207.846,254.331 208.844,253.871 210.055 C 253.368 211.376,253.401 211.523,254.490 212.817 C 257.463 216.351,265.234 213.113,265.234 208.341 L 265.234 207.031 262.402 207.074 C 260.845 207.098,258.834 207.262,257.934 207.440 " stroke="none" fill="#ebebeb" fill-rule="evenodd"></path><path id="path1" d="M151.758 141.878 C 148.504 143.015,146.861 145.310,146.514 149.202 L 146.289 151.724 143.164 154.166 C 139.640 156.919,139.097 157.042,136.604 155.648 C 125.620 149.509,108.459 148.896,95.351 154.174 C 64.351 166.657,54.428 205.684,75.778 231.154 L 78.314 234.180 78.512 245.884 L 78.711 257.589 79.739 258.165 C 80.866 258.797,79.761 259.382,95.508 249.820 C 98.744 247.855,100.046 247.262,100.781 247.419 C 101.318 247.534,103.076 247.930,104.688 248.300 C 127.594 253.559,154.516 238.380,161.897 216.044 C 164.669 207.657,165.409 191.312,163.095 189.609 C 162.536 189.198,120.479 189.244,119.238 189.657 C 118.550 189.886,118.531 209.781,119.219 210.469 C 119.557 210.807,122.234 210.938,128.801 210.938 C 139.141 210.938,139.059 210.910,137.350 213.825 C 126.379 232.545,96.056 229.133,89.126 208.398 C 81.405 185.299,105.717 165.137,127.252 176.780 C 131.282 178.960,130.010 179.593,138.302 171.282 C 145.673 163.894,145.967 163.437,144.531 161.612 C 143.429 160.211,143.478 160.102,146.126 158.046 C 150.471 154.671,151.953 155.251,151.953 160.325 L 151.953 163.599 150.016 164.990 C 144.764 168.763,145.270 175.914,150.977 178.556 C 159.688 182.590,166.874 170.124,158.839 164.919 C 156.636 163.492,156.624 163.465,156.695 160.195 C 156.741 158.087,156.927 157.160,157.383 156.771 C 157.727 156.477,158.674 155.688,159.488 155.018 C 166.086 149.583,159.883 139.037,151.758 141.878 M310.208 179.745 L 309.375 180.053 309.375 199.583 C 309.375 221.938,308.995 219.922,313.208 219.922 C 316.425 219.922,316.334 220.199,316.477 209.954 C 316.636 198.532,317.600 196.482,322.812 196.486 C 328.021 196.490,328.682 197.925,328.833 209.552 C 328.900 214.718,329.114 219.107,329.309 219.305 C 329.708 219.708,334.884 219.746,335.525 219.350 C 336.253 218.900,336.067 199.797,335.310 197.239 C 333.260 190.314,322.690 187.357,317.965 192.387 C 316.486 193.962,316.406 193.672,316.406 186.706 C 316.406 181.727,316.283 180.015,315.918 179.899 C 314.847 179.559,310.992 179.455,310.208 179.745 M196.622 183.017 C 196.497 183.344,196.370 185.146,196.342 187.021 L 196.289 190.430 193.750 190.625 L 191.211 190.820 191.094 193.516 C 190.952 196.789,191.188 197.070,194.064 197.070 L 196.289 197.070 196.484 205.664 C 196.701 215.175,196.808 215.628,199.383 217.889 C 201.121 219.415,202.928 219.917,206.690 219.920 C 210.307 219.922,210.516 219.726,210.591 216.261 C 210.661 213.075,210.775 213.194,207.599 213.135 C 203.684 213.061,203.528 212.762,203.467 205.230 C 203.440 201.924,203.396 198.735,203.369 198.145 L 203.320 197.070 206.836 196.875 L 210.352 196.680 210.352 193.750 L 210.352 190.820 206.836 190.625 L 203.320 190.430 203.266 187.015 C 203.235 185.136,203.109 183.335,202.985 183.011 C 202.656 182.153,196.951 182.159,196.622 183.017 M223.946 190.655 C 211.388 194.635,210.475 213.401,222.564 219.067 C 227.604 221.429,235.120 220.333,239.719 216.565 C 241.864 214.807,241.838 214.473,239.402 212.533 C 237.019 210.636,236.738 210.605,235.072 212.053 C 231.246 215.382,224.868 214.470,221.978 210.182 C 220.071 207.351,219.825 207.422,231.593 207.422 C 243.814 207.422,243.198 207.629,243.106 203.550 C 242.887 193.906,233.539 187.615,223.946 190.655 M255.763 190.267 C 253.755 190.741,249.719 192.823,248.556 193.987 L 247.596 194.946 248.651 196.790 C 250.595 200.186,250.882 200.335,252.587 198.839 C 256.822 195.120,263.216 195.237,265.034 199.068 C 266.087 201.287,265.853 201.416,260.289 201.676 C 249.293 202.192,244.608 206.733,246.963 214.594 C 248.692 220.363,257.522 222.152,263.705 217.986 L 265.430 216.824 265.552 217.982 C 265.735 219.712,269.709 220.691,271.865 219.536 C 272.943 218.960,273.083 201.189,272.038 197.669 C 270.351 191.987,262.880 188.589,255.763 190.267 M288.573 190.243 C 277.328 193.084,273.311 207.724,281.524 215.936 C 287.268 221.680,297.166 221.729,303.144 216.042 C 305.062 214.218,305.059 214.123,303.027 212.150 C 300.820 210.007,300.249 209.876,298.723 211.165 C 291.012 217.674,280.566 210.013,285.059 201.145 C 287.639 196.052,294.825 195.007,298.596 199.177 C 299.653 200.346,300.336 200.209,302.441 198.405 C 304.680 196.486,304.733 195.885,302.832 193.957 C 299.682 190.761,293.201 189.074,288.573 190.243 M232.296 196.909 C 234.097 197.781,235.333 199.206,235.759 200.903 L 236.022 201.953 231.350 201.953 C 228.780 201.953,225.641 202.050,224.374 202.169 C 220.689 202.513,220.226 201.460,222.781 198.550 C 225.035 195.983,228.978 195.302,232.296 196.909 M173.303 201.105 C 172.531 201.958,172.405 205.842,173.125 206.562 C 173.619 207.057,184.892 207.258,186.101 206.794 C 186.869 206.499,186.992 201.601,186.250 200.859 C 185.400 200.009,174.100 200.224,173.303 201.105 M265.461 208.678 C 264.487 214.772,253.516 216.946,253.516 211.046 C 253.516 208.274,255.935 207.121,261.866 207.066 L 265.725 207.031 265.461 208.678 " stroke="none" fill="#112e49" fill-rule="evenodd"></path><path id="path2" d="M151.557 161.603 C 151.453 162.936,151.509 163.884,151.683 163.710 C 151.856 163.535,151.941 162.445,151.872 161.286 L 151.747 159.180 151.557 161.603 M316.566 186.914 C 316.566 190.566,316.624 192.113,316.697 190.351 C 316.769 188.589,316.769 185.601,316.697 183.711 C 316.626 181.820,316.567 183.262,316.566 186.914 M258.891 189.729 C 259.377 189.823,260.080 189.819,260.454 189.722 C 260.827 189.624,260.430 189.547,259.570 189.552 C 258.711 189.556,258.405 189.636,258.891 189.729 M291.704 189.729 C 292.190 189.823,292.893 189.819,293.266 189.722 C 293.640 189.624,293.242 189.547,292.383 189.552 C 291.523 189.556,291.218 189.636,291.704 189.729 M204.590 190.517 C 205.288 190.604,206.431 190.604,207.129 190.517 C 207.827 190.430,207.256 190.359,205.859 190.359 C 204.463 190.359,203.892 190.430,204.590 190.517 M309.129 196.875 C 309.129 199.131,309.193 200.054,309.272 198.926 C 309.351 197.798,309.351 195.952,309.272 194.824 C 309.193 193.696,309.129 194.619,309.129 196.875 M118.525 201.758 C 118.525 206.270,118.582 208.062,118.651 205.740 C 118.720 203.419,118.720 199.728,118.651 197.537 C 118.581 195.347,118.524 197.246,118.525 201.758 M64.153 197.266 C 64.153 198.018,64.234 198.325,64.332 197.949 C 64.430 197.573,64.430 196.958,64.332 196.582 C 64.234 196.206,64.153 196.514,64.153 197.266 M164.590 200.000 C 164.590 201.826,164.657 202.573,164.739 201.660 C 164.821 200.747,164.821 199.253,164.739 198.340 C 164.657 197.427,164.590 198.174,164.590 200.000 M175.098 200.280 C 175.688 200.369,176.655 200.369,177.246 200.280 C 177.837 200.190,177.354 200.117,176.172 200.117 C 174.990 200.117,174.507 200.190,175.098 200.280 M183.501 200.276 C 183.987 200.370,184.690 200.366,185.063 200.268 C 185.437 200.171,185.039 200.094,184.180 200.099 C 183.320 200.103,183.015 200.183,183.501 200.276 M186.847 203.711 C 186.849 205.215,186.919 205.782,187.004 204.972 C 187.088 204.161,187.087 202.931,187.001 202.237 C 186.914 201.544,186.845 202.207,186.847 203.711 M336.105 209.961 C 336.105 214.902,336.161 216.870,336.229 214.333 C 336.298 211.797,336.297 207.754,336.229 205.349 C 336.160 202.944,336.105 205.020,336.105 209.961 M64.153 202.734 C 64.153 203.486,64.234 203.794,64.332 203.418 C 64.430 203.042,64.430 202.427,64.332 202.051 C 64.234 201.675,64.153 201.982,64.153 202.734 M316.543 206.250 C 316.543 208.076,316.610 208.823,316.692 207.910 C 316.775 206.997,316.775 205.503,316.692 204.590 C 316.610 203.677,316.543 204.424,316.543 206.250 M284.075 205.078 C 284.075 205.830,284.155 206.138,284.254 205.762 C 284.352 205.386,284.352 204.771,284.254 204.395 C 284.155 204.019,284.075 204.326,284.075 205.078 M309.121 209.375 C 309.121 211.201,309.188 211.948,309.270 211.035 C 309.353 210.122,309.353 208.628,309.270 207.715 C 309.188 206.802,309.121 207.549,309.121 209.375 M196.184 211.719 C 196.184 212.471,196.265 212.778,196.363 212.402 C 196.461 212.026,196.461 211.411,196.363 211.035 C 196.265 210.659,196.184 210.967,196.184 211.719 M124.685 211.229 C 126.983 211.298,130.850 211.298,133.279 211.229 C 135.708 211.161,133.828 211.104,129.102 211.104 C 124.375 211.104,122.388 211.160,124.685 211.229 M328.622 217.188 C 328.622 218.154,328.698 218.550,328.791 218.066 C 328.884 217.583,328.884 216.792,328.791 216.309 C 328.698 215.825,328.622 216.221,328.622 217.188 M205.362 220.204 C 206.056 220.290,207.286 220.292,208.097 220.207 C 208.907 220.122,208.340 220.052,206.836 220.050 C 205.332 220.048,204.669 220.118,205.362 220.204 M291.309 220.588 C 291.792 220.681,292.583 220.681,293.066 220.588 C 293.550 220.495,293.154 220.419,292.188 220.419 C 291.221 220.419,290.825 220.495,291.309 220.588 M115.332 226.051 C 115.708 226.149,116.323 226.149,116.699 226.051 C 117.075 225.952,116.768 225.872,116.016 225.872 C 115.264 225.872,114.956 225.952,115.332 226.051 M113.379 249.499 C 113.970 249.588,114.937 249.588,115.527 249.499 C 116.118 249.409,115.635 249.336,114.453 249.336 C 113.271 249.336,112.788 249.409,113.379 249.499 " stroke="none" fill="#8d9ca9" fill-rule="evenodd"></path><path id="path3" d="M156.769 160.742 C 156.771 162.246,156.841 162.813,156.926 162.003 C 157.010 161.193,157.009 159.962,156.923 159.269 C 156.836 158.575,156.767 159.238,156.769 160.742 M138.863 170.801 L 132.617 177.148 138.965 170.903 C 144.862 165.101,145.489 164.453,145.210 164.453 C 145.154 164.453,142.298 167.310,138.863 170.801 M312.598 179.577 C 313.188 179.666,314.155 179.666,314.746 179.577 C 315.337 179.487,314.854 179.414,313.672 179.414 C 312.490 179.414,312.007 179.487,312.598 179.577 M95.291 181.152 L 93.945 182.617 95.410 181.271 C 96.774 180.018,97.055 179.688,96.756 179.688 C 96.691 179.688,96.032 180.347,95.291 181.152 M196.211 185.938 C 196.211 187.119,196.284 187.603,196.374 187.012 C 196.463 186.421,196.463 185.454,196.374 184.863 C 196.284 184.272,196.211 184.756,196.211 185.938 M203.261 187.109 C 203.261 188.936,203.329 189.683,203.411 188.770 C 203.493 187.856,203.493 186.362,203.411 185.449 C 203.329 184.536,203.261 185.283,203.261 187.109 M309.116 187.891 C 309.116 189.502,309.185 190.161,309.269 189.355 C 309.353 188.550,309.353 187.231,309.269 186.426 C 309.185 185.620,309.116 186.279,309.116 187.891 M196.139 189.135 C 196.101 190.015,195.888 190.210,194.824 190.342 L 193.555 190.500 194.836 190.562 C 196.192 190.629,196.693 190.049,196.367 188.792 C 196.245 188.320,196.169 188.433,196.139 189.135 M129.590 189.355 C 133.940 189.418,141.060 189.418,145.410 189.355 C 149.761 189.292,146.201 189.241,137.500 189.241 C 128.799 189.241,125.239 189.292,129.590 189.355 M194.912 197.094 L 196.074 197.314 196.197 203.149 L 196.321 208.985 196.305 203.028 L 196.289 197.070 195.020 196.973 C 193.786 196.878,193.783 196.881,194.912 197.094 M203.380 197.168 C 203.279 197.329,204.280 197.412,205.603 197.352 C 209.647 197.168,210.125 196.995,206.761 196.934 C 205.002 196.901,203.480 197.007,203.380 197.168 M87.606 199.609 C 87.606 200.576,87.683 200.972,87.776 200.488 C 87.869 200.005,87.869 199.214,87.776 198.730 C 87.683 198.247,87.606 198.643,87.606 199.609 M222.559 202.229 C 223.042 202.322,223.833 202.322,224.316 202.229 C 224.800 202.136,224.404 202.060,223.438 202.060 C 222.471 202.060,222.075 202.136,222.559 202.229 M213.770 204.883 C 213.775 205.742,213.855 206.048,213.948 205.562 C 214.042 205.076,214.038 204.373,213.940 203.999 C 213.842 203.626,213.766 204.023,213.770 204.883 M175.098 207.311 C 175.688 207.401,176.655 207.401,177.246 207.311 C 177.837 207.222,177.354 207.148,176.172 207.148 C 174.990 207.148,174.507 207.222,175.098 207.311 M182.129 207.311 C 182.720 207.401,183.687 207.401,184.277 207.311 C 184.868 207.222,184.385 207.148,183.203 207.148 C 182.021 207.148,181.538 207.222,182.129 207.311 M225.684 207.698 C 226.167 207.791,226.958 207.791,227.441 207.698 C 227.925 207.604,227.529 207.528,226.563 207.528 C 225.596 207.528,225.200 207.604,225.684 207.698 M210.659 216.992 C 210.662 218.066,210.737 218.459,210.827 217.866 C 210.917 217.272,210.915 216.393,210.822 215.913 C 210.729 215.432,210.656 215.918,210.659 216.992 M331.744 219.812 C 332.337 219.901,333.216 219.899,333.697 219.806 C 334.177 219.714,333.691 219.640,332.617 219.643 C 331.543 219.646,331.150 219.722,331.744 219.812 M150.952 233.691 L 149.805 234.961 151.074 233.814 C 152.258 232.744,152.523 232.422,152.222 232.422 C 152.154 232.422,151.583 232.993,150.952 233.691 M78.294 246.680 C 78.294 252.051,78.349 254.302,78.417 251.683 C 78.484 249.064,78.484 244.669,78.417 241.917 C 78.350 239.166,78.295 241.309,78.294 246.680 " stroke="none" fill="#747c88" fill-rule="evenodd"></path><path id="path4" d="M78.296 165.332 L 77.148 166.602 78.418 165.454 C 79.116 164.823,79.688 164.252,79.688 164.185 C 79.688 163.883,79.365 164.149,78.296 165.332 M309.075 183.984 C 309.075 184.736,309.155 185.044,309.254 184.668 C 309.352 184.292,309.352 183.677,309.254 183.301 C 309.155 182.925,309.075 183.232,309.075 183.984 M118.466 192.188 C 118.466 193.154,118.542 193.550,118.635 193.066 C 118.728 192.583,118.728 191.792,118.635 191.309 C 118.542 190.825,118.466 191.221,118.466 192.188 M309.075 191.797 C 309.075 192.549,309.155 192.856,309.254 192.480 C 309.352 192.104,309.352 191.489,309.254 191.113 C 309.155 190.737,309.075 191.045,309.075 191.797 M309.116 203.516 C 309.116 205.127,309.185 205.786,309.269 204.980 C 309.353 204.175,309.353 202.856,309.269 202.051 C 309.185 201.245,309.116 201.904,309.116 203.516 M328.676 208.984 C 328.676 212.744,328.735 214.282,328.806 212.402 C 328.878 210.522,328.878 207.446,328.806 205.566 C 328.735 203.687,328.676 205.225,328.676 208.984 M178.809 207.307 C 179.292 207.400,180.083 207.400,180.566 207.307 C 181.050 207.214,180.654 207.138,179.688 207.138 C 178.721 207.138,178.325 207.214,178.809 207.307 M221.973 207.702 C 222.563 207.791,223.530 207.791,224.121 207.702 C 224.712 207.612,224.229 207.539,223.047 207.539 C 221.865 207.539,221.382 207.612,221.973 207.702 M231.348 207.713 C 233.228 207.784,236.304 207.784,238.184 207.713 C 240.063 207.641,238.525 207.583,234.766 207.583 C 231.006 207.583,229.468 207.641,231.348 207.713 M316.557 214.063 C 316.557 216.748,316.619 217.847,316.695 216.504 C 316.772 215.161,316.772 212.964,316.695 211.621 C 316.619 210.278,316.557 211.377,316.557 214.063 M309.121 215.625 C 309.121 217.451,309.188 218.198,309.270 217.285 C 309.353 216.372,309.353 214.878,309.270 213.965 C 309.188 213.052,309.121 213.799,309.121 215.625 " stroke="none" fill="#74848c" fill-rule="evenodd"></path></g></svg>